<?xml version="1.0" encoding="utf-8"?>
<!-- Generator: Adobe Illustrator 26.2.1, SVG Export Plug-In . SVG Version: 6.00 Build 0)  -->
<svg version="1.1" id="Capa_1" xmlns="http://www.w3.org/2000/svg" xmlns:xlink="http://www.w3.org/1999/xlink" x="0px" y="0px"
	 viewBox="0 0 50 50" style="enable-background:new 0 0 50 50;" xml:space="preserve">
<style type="text/css">
	.st0{fill:url(#SVGID_1_);}
	.st1{fill:url(#SVGID_00000119839022159202760960000008465872574765924783_);}
	.st2{fill:#FFFFFF;}
	.st3{fill:url(#SVGID_00000088836560899008260450000003360051655408460945_);}
	.st4{fill:url(#SVGID_00000181786664861285914880000009019637359051999674_);}
	.st5{fill:url(#SVGID_00000148629565375367041880000001627622116605363599_);}
	.st6{fill:none;}
	.st7{fill:url(#SVGID_00000024681421136813834250000003271399619837588913_);}
	.st8{fill:url(#SVGID_00000141437160718933079550000000822938948689836720_);}
	.st9{fill:url(#SVGID_00000154420683215512651040000008803426363746218174_);}
	.st10{fill:#D4017D;}
	.st11{fill:#E8362F;}
	.st12{fill:url(#SVGID_00000088096217863246885700000009507341803576103343_);}
	.st13{fill:url(#SVGID_00000134938210283421810290000006187361682847360168_);}
	.st14{fill:url(#SVGID_00000183250926250372193830000004907337607172041660_);}
	.st15{fill:url(#SVGID_00000119115149021545950140000015039897975395599001_);}
	.st16{fill:url(#SVGID_00000014592076817770057000000011309957465852739213_);}
	.st17{fill:url(#SVGID_00000129186279883295390040000010060017520906465726_);}
	.st18{fill:url(#SVGID_00000031908598445490800940000012837563859680193157_);}
	.st19{fill:url(#SVGID_00000020361816822202093910000001727308497257340588_);}
</style>
<g>
	<g>
		<linearGradient id="SVGID_1_" gradientUnits="userSpaceOnUse" x1="15.7384" y1="32.0527" x2="34.3232" y2="32.0527">
			<stop  offset="0" style="stop-color:#D4017D"/>
			<stop  offset="1" style="stop-color:#E8362F"/>
		</linearGradient>
		<path class="st0" d="M34.32,22.08v19.95h-4.87L21.7,31.55h-0.13v10.48h-5.83V22.08h4.95l7.64,10.44h0.17V22.08H34.32z"/>
	</g>
	
		<linearGradient id="SVGID_00000075877845953768018490000007890819361912056717_" gradientUnits="userSpaceOnUse" x1="6.0297" y1="25" x2="43.9703" y2="25">
		<stop  offset="0" style="stop-color:#D4017D"/>
		<stop  offset="1" style="stop-color:#E8362F"/>
	</linearGradient>
	<path style="fill:url(#SVGID_00000075877845953768018490000007890819361912056717_);" d="M43.96,45.3
		c-0.1-1.34-0.14-2.69-0.22-4.04c-0.11-1.79-0.24-3.58-0.34-5.37c-0.1-1.66-0.18-3.31-0.28-4.97c-0.1-1.7-0.23-3.4-0.33-5.1
		c-0.08-1.35-0.15-2.69-0.22-4.04c-0.08-1.4-0.18-2.81-0.25-4.21c-0.02-0.33-0.17-0.43-0.47-0.43c-0.95,0.01-1.9,0-2.84,0
		c0.04-0.02,0.07-0.03,0.11-0.05h-4.66c-0.16,0.02-0.3,0.04-0.49,0.07c0-0.19,0-0.33,0-0.47c-0.01-1.62,0.05-3.24-0.03-4.85
		c-0.16-3.11-1.42-5.66-4.08-7.4c-1.23-0.8-2.59-1.28-4.07-1.41C25.52,3,25.26,2.99,25,2.99v0c0,0,0,0,0,0c0,0,0,0,0,0v0
		c-0.26,0-0.52,0.01-0.78,0.04c-1.48,0.13-2.84,0.61-4.07,1.41c-2.66,1.74-3.92,4.29-4.08,7.4c-0.08,1.61-0.02,3.23-0.03,4.85
		c0,0.14,0,0.29,0,0.47c-0.19-0.03-0.33-0.05-0.49-0.07h-4.66c0.04,0.02,0.07,0.03,0.11,0.05c-0.95,0-1.9,0-2.84,0
		c-0.3,0-0.45,0.1-0.47,0.43c-0.07,1.41-0.17,2.81-0.25,4.21c-0.08,1.35-0.14,2.69-0.22,4.04c-0.1,1.7-0.23,3.4-0.33,5.1
		c-0.1,1.66-0.18,3.31-0.28,4.97c-0.11,1.79-0.24,3.58-0.34,5.37c-0.08,1.35-0.12,2.69-0.22,4.04c-0.08,1.06,0.48,1.7,1.54,1.71
		c0.22,0,0.45,0,0.67,0c5.59,0,11.17,0,16.76,0c5.59,0,11.17,0,16.76,0c0.22,0,0.45,0,0.67,0C43.48,47,44.04,46.36,43.96,45.3z
		 M18,11.72c0.07-3.29,2.27-5.96,5.46-6.7c0.52-0.12,1.03-0.18,1.54-0.18c0.51,0,1.03,0.06,1.54,0.18c3.19,0.73,5.39,3.41,5.46,6.7
		c0.03,1.6,0.02,3.2,0.02,4.81c0,0.2,0,0.4,0,0.61c-0.25,0-0.43,0-0.64,0c0-0.02,0-0.03,0-0.04h-1.97c0,0.01,0,0.02,0,0.03
		c-1.48,0-2.94,0-4.41,0c0,0-0.01,0-0.01,0c-1.47,0-2.93,0-4.41,0c0-0.01,0-0.02,0-0.03h-1.97c0,0.01,0,0.03,0,0.04
		c-0.21,0-0.38,0-0.64,0c0-0.21,0-0.41,0-0.61C17.98,14.93,17.96,13.32,18,11.72z M41.62,45.14c-4.32-0.02-8.64-0.02-12.95-0.03
		c-0.79,0-1.58,0-2.37,0l-0.72,0.03c0,0-0.11-0.01-0.3-0.03c-0.03,0-0.06,0-0.1,0c0.02,0,0.03,0,0.05,0
		c-0.07-0.01-0.15-0.01-0.23-0.02v0c0,0,0,0,0,0c0,0,0,0,0,0v0c-0.08,0.01-0.16,0.01-0.23,0.02c0.02,0,0.03,0,0.05,0
		c-0.03,0-0.06,0-0.1,0c-0.19,0.02-0.3,0.03-0.3,0.03l-0.72-0.03c-0.79,0-1.58,0-2.37,0c-4.32,0.01-8.64,0.01-12.95,0.03
		c-0.42,0-0.54-0.11-0.48-0.54c0.09-0.66,0.1-1.33,0.14-1.99c0.17-2.7,0.35-5.41,0.52-8.11c0.1-1.64,0.19-3.28,0.29-4.92
		c0.14-2.4,0.29-4.79,0.43-7.19c0.06-0.99,0.12-1.98,0.18-2.97c0.01-0.22,0.07-0.37,0.33-0.37c0.96-0.01,1.91-0.01,2.87-0.02v-0.06
		H25H25h12.34v0.06c0.96,0.01,1.91,0.01,2.87,0.02c0.26,0,0.32,0.15,0.33,0.37c0.05,0.99,0.12,1.98,0.18,2.97
		c0.15,2.4,0.29,4.79,0.43,7.19c0.1,1.64,0.19,3.28,0.29,4.92c0.17,2.7,0.34,5.41,0.52,8.11c0.04,0.67,0.06,1.33,0.14,1.99
		C42.16,45.02,42.04,45.14,41.62,45.14z"/>
</g>
</svg>
