<?xml version="1.0" encoding="utf-8"?>
<!-- Generator: Adobe Illustrator 26.2.1, SVG Export Plug-In . SVG Version: 6.00 Build 0)  -->
<svg version="1.1" id="Capa_1" xmlns="http://www.w3.org/2000/svg" xmlns:xlink="http://www.w3.org/1999/xlink" x="0px" y="0px"
	 viewBox="0 0 50 50" style="enable-background:new 0 0 50 50;" xml:space="preserve">
<style type="text/css">
	.st0{fill:url(#SVGID_1_);}
</style>
<linearGradient id="SVGID_1_" gradientUnits="userSpaceOnUse" x1="2.0008" y1="25" x2="47.9992" y2="25">
	<stop  offset="0" style="stop-color:#F7572D"/>
	<stop  offset="0.482" style="stop-color:#CC0D88"/>
	<stop  offset="1" style="stop-color:#6000A8"/>
</linearGradient>
<path class="st0" d="M46.1,29.44c-2.77-3.65-6.03-7.96-9.18-12.25c-0.54-0.73-0.76-1.5-0.65-2.22c0.1-0.63,0.46-1.19,1.04-1.6
	c0.44-0.31,0.91-0.47,1.4-0.47c0.79,0,1.6,0.43,2.27,1.21c0.16,0.18,0.3,0.38,0.44,0.59c0.35,0.51,0.72,1.03,1.29,1.29
	c0.42,0.19,0.97,0.3,1.49,0.3c0.39,0,0.94-0.06,1.35-0.36c0.69-0.51,1.16-1.91,0.92-2.77c-0.82-2.95-4.38-5.45-7.79-5.45
	c-0.36,0-0.71,0.03-1.04,0.08c-2.73,0.46-4.97,2.2-5.99,4.65c-1.03,2.47-0.66,5.31,0.97,7.61c1.97,2.78,4.06,5.54,6.09,8.2
	c0.94,1.24,1.89,2.49,2.82,3.74c1.5,2.01,1.6,3.55,0.3,4.57c-0.46,0.36-0.94,0.55-1.41,0.55c-0.94,0-1.99-0.73-3.03-2.1
	c-1.56-2.06-9.26-13.86-8.16-20.19c0.04-0.23,0.02-0.45,0.01-0.64l-0.01-0.13c-0.16-3.08-1.83-5.3-4.6-6.09
	c-0.56-0.16-1.13-0.24-1.71-0.24c-1.98,0-3.79,0.93-4.98,2.55c-1.7,2.32-1.64,5.1,0.18,7.63l0.84,1.18
	c1.17,1.65,2.37,3.36,3.74,4.89c1.7,1.91,1.48,3.99,1.26,6.19c-0.04,0.39-0.08,0.79-0.11,1.18c-5.49-7.01-10.86-14.16-16.06-21.09
	L7.21,9.48C6.61,8.66,5.93,7.72,4.7,7.72c-0.3,0-0.62,0.06-0.95,0.18c-1.79,0.64-1.76,2.22-1.74,3.37l0,0.4l0,7.01
	c0,6.66,0,13.31-0.02,19.97c0,1.1,0.09,2.22,0.8,2.93c0.43,0.43,1.03,0.65,1.87,0.65c0,0,0,0,0.01,0c2.48-0.06,2.48-2.41,2.48-3.54
	c-0.02-6.47-0.01-12.95,0-19.42c0-0.36,0.02-0.72,0.04-1.14c0.31,0.37,0.57,0.69,0.81,1.02l4.06,5.42
	c3.88,5.19,7.9,10.55,11.92,15.77c0.96,1.25,1.92,1.88,2.87,1.88c0.19,0,0.38-0.03,0.56-0.08c1.14-0.13,1.8-1.96,1.77-3.63
	c-0.03-1.26,0-2.54,0.02-3.89c0.01-0.59,0.02-1.2,0.03-1.83c0.38,0.5,0.74,0.99,1.09,1.47c1.37,1.83,2.65,3.56,3.99,5.2
	c1.53,1.87,3.51,2.85,5.74,2.85c0,0,0,0,0,0c0.55,0,1.13-0.06,1.71-0.18c3.09-0.64,5.16-2.63,5.98-5.76
	C48.37,33.98,47.83,31.72,46.1,29.44z M22.35,12.85c0.13-0.13,0.28-0.19,0.44-0.19c0.47,0,0.99,0.48,1.08,1.03l0.01,0.08l0.05,0.09
	c0.19,0.91,0.16,1.87,0.12,3.1c0,0.08-0.01,0.17-0.01,0.25c-0.05-0.06-0.1-0.13-0.15-0.19c-0.75-0.95-1.35-1.71-1.72-2.54l-0.1-0.37
	l-0.03,0C21.98,13.78,21.95,13.24,22.35,12.85z"/>
</svg>
