<?xml version="1.0" encoding="utf-8"?>
<!-- Generator: Adobe Illustrator 26.2.1, SVG Export Plug-In . SVG Version: 6.00 Build 0)  -->
<svg version="1.1" id="Capa_1" xmlns="http://www.w3.org/2000/svg" xmlns:xlink="http://www.w3.org/1999/xlink" x="0px" y="0px"
	 viewBox="0 0 200 40" style="enable-background:new 0 0 200 40;" xml:space="preserve">
<style type="text/css">
	.st0{fill:url(#SVGID_1_);}
	.st1{fill:url(#SVGID_00000093163198893761196300000001831690363065935272_);}
	.st2{fill:#FFFFFF;}
	.st3{fill:url(#SVGID_00000077322013209056686960000017952022378491773631_);}
	.st4{fill:url(#SVGID_00000047775177348881109730000000007912447423107772_);}
	.st5{fill:url(#SVGID_00000162342493071241390080000005564463143830609552_);}
	.st6{fill:none;}
	.st7{fill:url(#SVGID_00000025433423837562698140000011002898275108714885_);}
	.st8{fill:url(#SVGID_00000020394297806473349480000013761855157642814854_);}
	.st9{fill:url(#SVGID_00000124130187335490922160000011270640094877394855_);}
	.st10{fill:#D4017D;}
	.st11{fill:#E8362F;}
	.st12{fill:url(#SVGID_00000032628913021363141260000017887162315976162973_);}
	.st13{fill:url(#SVGID_00000131369371007594544890000011755344006239711114_);}
	.st14{fill:url(#SVGID_00000014597187242772167130000008522777048727780751_);}
	.st15{fill:url(#SVGID_00000145763771711476354620000002533536577751422888_);}
	.st16{fill:url(#SVGID_00000008861564857001291140000011909307455979386270_);}
	.st17{fill:url(#SVGID_00000079472614904649409230000016121841659984309430_);}
	.st18{fill:url(#SVGID_00000021816257439129145840000000342730967880190085_);}
	.st19{fill:url(#SVGID_00000007419445248294748790000015514444549436194469_);}
</style>
<g>
	<g>
		<linearGradient id="SVGID_1_" gradientUnits="userSpaceOnUse" x1="1.5083" y1="20.6256" x2="76.3922" y2="19.2172">
			<stop  offset="0" style="stop-color:#D4017D"/>
			<stop  offset="1" style="stop-color:#E8362F"/>
		</linearGradient>
		<path class="st0" d="M20.52,24.21h-0.29L6.08,3.59H0v32.79h6.93V15.74h0.24l14.26,20.63h5.99V3.59h-6.9V24.21z M36.08,22.83h14.02
			v-5.72H36.08V9.31h15.16V3.59H29.15v32.79h22.16v-5.71H36.08V22.83z M75.43,3.59l-7.48,14.12h-0.32L60.16,3.59h-7.76l11.96,21.2
			v11.59h6.88V24.79l11.96-21.2H75.43z"/>
	</g>
</g>
<g>
	<path d="M102.09,11.79c-0.17-2.04-1-3.69-2.49-4.95c-1.49-1.26-3.41-1.89-5.77-1.89c-1.59,0-3,0.29-4.24,0.88
		c-1.24,0.59-2.21,1.39-2.91,2.4c-0.7,1.01-1.06,2.18-1.06,3.49c0,0.84,0.16,1.6,0.49,2.28c0.33,0.68,0.79,1.28,1.38,1.81
		c0.6,0.53,1.31,0.99,2.13,1.38c0.82,0.39,1.73,0.74,2.72,1.04l3.59,1.06c1.23,0.37,2.36,0.81,3.4,1.3
		c1.04,0.49,1.95,1.08,2.72,1.75c0.77,0.68,1.38,1.47,1.81,2.38c0.43,0.91,0.65,1.95,0.65,3.14c0,1.73-0.45,3.28-1.34,4.64
		c-0.89,1.37-2.16,2.44-3.79,3.23c-1.64,0.78-3.57,1.18-5.79,1.18c-2.11,0-3.95-0.36-5.51-1.07c-1.56-0.71-2.8-1.71-3.71-2.99
		c-0.91-1.28-1.42-2.75-1.54-4.41h2.05c0.11,1.36,0.54,2.53,1.3,3.51c0.76,0.99,1.78,1.75,3.05,2.28c1.27,0.53,2.72,0.8,4.35,0.8
		c1.76,0,3.31-0.3,4.66-0.9c1.34-0.6,2.4-1.44,3.15-2.52c0.76-1.08,1.14-2.33,1.14-3.76c0-1.15-0.27-2.14-0.82-2.96
		c-0.54-0.82-1.35-1.53-2.41-2.13c-1.06-0.6-2.38-1.13-3.95-1.6L91.54,20c-2.56-0.78-4.52-1.84-5.87-3.19
		c-1.35-1.34-2.03-3.02-2.03-5.03c0-1.69,0.45-3.18,1.34-4.49c0.9-1.31,2.12-2.33,3.66-3.08c1.54-0.75,3.28-1.12,5.23-1.12
		c1.95,0,3.68,0.38,5.17,1.13c1.49,0.75,2.68,1.78,3.55,3.09c0.87,1.31,1.36,2.8,1.46,4.47H102.09z"/>
</g>
<g>
	<path d="M103.3,5.45V3.59h22.97v1.86h-10.49v30.93h-2V5.45H103.3z"/>
</g>
<g>
	<path d="M153.29,19.98c0,3.38-0.59,6.34-1.76,8.86c-1.17,2.52-2.8,4.49-4.89,5.88c-2.09,1.4-4.49,2.1-7.21,2.1
		c-2.73,0-5.14-0.7-7.23-2.11c-2.09-1.4-3.72-3.37-4.89-5.89c-1.17-2.52-1.76-5.47-1.76-8.84c0-3.38,0.59-6.33,1.77-8.85
		c1.18-2.52,2.81-4.48,4.89-5.88c2.08-1.4,4.49-2.11,7.22-2.11c2.72,0,5.13,0.7,7.21,2.1c2.09,1.4,3.72,3.36,4.89,5.88
		C152.7,13.65,153.29,16.6,153.29,19.98z M151.34,19.98c0-3.04-0.51-5.68-1.53-7.91c-1.02-2.23-2.43-3.96-4.22-5.18
		c-1.79-1.22-3.85-1.83-6.16-1.83c-2.32,0-4.37,0.61-6.16,1.82c-1.79,1.21-3.2,2.93-4.22,5.17c-1.02,2.24-1.53,4.88-1.53,7.93
		c0,3.02,0.5,5.65,1.51,7.88c1.01,2.24,2.41,3.97,4.2,5.19c1.79,1.23,3.86,1.84,6.2,1.84c2.32,0,4.37-0.61,6.16-1.83
		c1.79-1.22,3.2-2.95,4.22-5.18C150.83,25.66,151.34,23.03,151.34,19.98z"/>
</g>
<g>
	<path d="M178.19,36.38l-7.73-14.24c0.58-0.18,1.14-0.39,1.66-0.67c1.49-0.8,2.63-1.91,3.43-3.34c0.8-1.42,1.2-3.08,1.2-4.95
		c0-1.9-0.4-3.57-1.2-5c-0.8-1.44-1.95-2.56-3.44-3.37c-1.49-0.81-3.28-1.22-5.35-1.22h-10.1v32.79h2v-13.7h8.12
		c0.58,0,1.12-0.04,1.66-0.1l7.45,13.8H178.19z M166.73,20.8h-8.07V5.45h8.05c1.69,0,3.13,0.32,4.33,0.96
		c1.2,0.64,2.12,1.54,2.76,2.7c0.64,1.16,0.96,2.52,0.96,4.07c0,1.55-0.32,2.89-0.96,4.03c-0.64,1.14-1.56,2.02-2.75,2.65
		C169.86,20.49,168.42,20.8,166.73,20.8z"/>
</g>
<g>
	<path d="M181.37,36.38V3.59h18.25v1.86h-16.25v13.59h15.27v1.86h-15.27v13.62H200v1.86H181.37z"/>
</g>
<linearGradient id="SVGID_00000152231446659904563730000010277190265536466100_" gradientUnits="userSpaceOnUse" x1="135.6816" y1="19.984" x2="143.155" y2="19.984">
	<stop  offset="0" style="stop-color:#D4017D"/>
	<stop  offset="1" style="stop-color:#E8362F"/>
</linearGradient>
<circle style="fill:url(#SVGID_00000152231446659904563730000010277190265536466100_);" cx="139.42" cy="19.98" r="3.74"/>
</svg>
